<svg xmlns="http://www.w3.org/2000/svg" version="1.1" xmlns:xlink="http://www.w3.org/1999/xlink" xmlns:svgjs="http://svgjs.dev/svgjs" width="1000" height="320" viewBox="0 0 1000 320"><g transform="matrix(1,0,0,1,-0.6060562534143514,-0.41501642890028734)"><svg viewBox="0 0 396 127" data-background-color="#ffffff" preserveAspectRatio="xMidYMid meet" height="320" width="1000" xmlns="http://www.w3.org/2000/svg" xmlns:xlink="http://www.w3.org/1999/xlink"><g id="tight-bounds" transform="matrix(1,0,0,1,0.23999827635208248,0.16470964521980136)"><svg viewBox="0 0 395.52 126.6705807095604" height="126.6705807095604" width="395.52"><g><svg viewBox="0 0 674.8870066948124 216.14160864524894" height="126.6705807095604" width="395.52"><g transform="matrix(1,0,0,1,279.3670066948124,0)"><svg viewBox="0 0 395.52 216.14160864524894" height="216.14160864524894" width="395.52"><g id="textblocktransform"><svg viewBox="0 0 395.52 216.14160864524894" height="216.14160864524894" width="395.52" id="textblock"><g><svg viewBox="0 0 395.52 146.87438596491228" height="146.87438596491228" width="395.52"><g transform="matrix(1,0,0,1,0,0)"><svg width="395.52" viewBox="5 -37.70000076293945 102.5999984741211 38.10000228881836" height="146.87438596491228" data-palette-color="#fce44d"><g class="wordmark-text-0" data-fill-palette-color="primary" id="text-0"><path d="M10.9-36.4L10.9-22.45 10.75-20.6 11.55-21.75 25.25-36.4 32.75-36.4 17.7-20.5 33.3 0 25.9 0 13.45-16.8 10.9-14.3 10.9 0 5 0 5-36.4 10.9-36.4ZM45.1 0L39.45 0 39.45-37.7 39.5-37.7 59.1-9.95 56.6-10.5 76.1-37.7 76.2-37.7 76.2 0 70.4 0 70.4-24.55 70.8-21.6 57.6-2.95 57.5-2.95 44.1-21.6 45.1-24.3 45.1 0ZM107.5-33.45L105.3-29Q103.35-30 101.15-30.73 98.95-31.45 96.95-31.45L96.95-31.45Q94.25-31.45 92.67-30.25 91.1-29.05 91.1-26.95L91.1-26.95Q91.1-25.45 92.17-24.33 93.25-23.2 94.97-22.38 96.7-21.55 98.6-20.8L98.6-20.8Q100.25-20.2 101.87-19.38 103.5-18.55 104.8-17.35 106.1-16.15 106.85-14.38 107.6-12.6 107.6-10L107.6-10Q107.6-7.15 106.17-4.78 104.75-2.4 102.05-1 99.35 0.4 95.5 0.4L95.5 0.4Q93.2 0.4 91.02-0.1 88.85-0.6 86.9-1.48 84.95-2.35 83.3-3.45L83.3-3.45 85.9-8Q87.1-7.1 88.65-6.35 90.2-5.6 91.85-5.15 93.5-4.7 94.95-4.7L94.95-4.7Q96.5-4.7 98.02-5.23 99.55-5.75 100.57-6.9 101.6-8.05 101.6-9.95L101.6-9.95Q101.6-11.5 100.72-12.6 99.85-13.7 98.4-14.53 96.95-15.35 95.25-16L95.25-16Q93.55-16.65 91.8-17.45 90.05-18.25 88.52-19.43 87-20.6 86.05-22.3 85.1-24 85.1-26.5L85.1-26.5Q85.1-29.5 86.5-31.7 87.9-33.9 90.37-35.2 92.85-36.5 96.1-36.6L96.1-36.6Q99.95-36.6 102.67-35.68 105.4-34.75 107.5-33.45L107.5-33.45Z" fill="#fce44d" data-fill-palette-color="primary"></path></g></svg></g></svg></g><g transform="matrix(1,0,0,1,0,181.5479035059649)"><svg viewBox="0 0 232.209792 34.59370513928403" height="34.59370513928403" width="232.209792"><g transform="matrix(1,0,0,1,0,0)"><svg width="232.209792" viewBox="4.449999809265137 -36.5 319.8199768066406 47.650001525878906" height="34.59370513928403" data-palette-color="#fce44d"><path d="M39.4 0L35.9 0 35.9-28.9 23.05-6.45 20.85-6.45 7.95-28.9 7.95 0 4.45 0 4.45-35.5 8.05-35.5 21.9-11.2 35.85-35.5 39.4-35.5 39.4 0ZM45.25-7.5L45.25-7.5Q45.25-9.95 46.65-11.73 48.05-13.5 50.52-14.48 53-15.45 56.25-15.45L56.25-15.45Q58.15-15.45 60.2-15.15 62.25-14.85 63.85-14.25L63.85-14.25 63.85-16.45Q63.85-19.75 61.9-21.7 59.95-23.65 56.5-23.65L56.5-23.65Q54.4-23.65 52.37-22.88 50.35-22.1 48.15-20.6L48.15-20.6 46.85-23Q49.4-24.75 51.85-25.63 54.3-26.5 56.85-26.5L56.85-26.5Q61.65-26.5 64.45-23.75 67.25-21 67.25-16.15L67.25-16.15 67.25-4.1Q67.25-3.4 67.55-3.08 67.85-2.75 68.5-2.7L68.5-2.7 68.5 0Q67.95 0.05 67.55 0.1 67.15 0.15 66.95 0.1L66.95 0.1Q65.7 0.05 65.05-0.7 64.4-1.45 64.35-2.3L64.35-2.3 64.3-4.2Q62.55-1.95 59.75-0.73 56.95 0.5 54.05 0.5L54.05 0.5Q51.55 0.5 49.52-0.58 47.5-1.65 46.37-3.48 45.25-5.3 45.25-7.5ZM62.7-5.5L62.7-5.5Q63.25-6.2 63.55-6.85 63.85-7.5 63.85-8L63.85-8 63.85-11.8Q62.15-12.45 60.32-12.8 58.5-13.15 56.65-13.15L56.65-13.15Q53-13.15 50.75-11.7 48.5-10.25 48.5-7.75L48.5-7.75Q48.5-6.3 49.25-5.03 50-3.75 51.45-2.93 52.9-2.1 54.85-2.1L54.85-2.1Q57.3-2.1 59.42-3.05 61.55-4 62.7-5.5ZM96.5-15.25L96.5 0 93.09 0 93.09-14.55Q93.09-19.15 91.75-21.28 90.39-23.4 87.5-23.4L87.5-23.4Q85.5-23.4 83.55-22.43 81.59-21.45 80.12-19.78 78.64-18.1 78-15.95L78-15.95 78 0 74.59 0 74.59-26.05 77.69-26.05 77.69-20.15Q78.75-22.05 80.44-23.48 82.14-24.9 84.3-25.7 86.44-26.5 88.75-26.5L88.75-26.5Q90.89-26.5 92.39-25.7 93.89-24.9 94.8-23.43 95.69-21.95 96.09-19.88 96.5-17.8 96.5-15.25L96.5-15.25ZM101.64-7.5L101.64-7.5Q101.64-9.95 103.04-11.73 104.44-13.5 106.92-14.48 109.39-15.45 112.64-15.45L112.64-15.45Q114.54-15.45 116.59-15.15 118.64-14.85 120.24-14.25L120.24-14.25 120.24-16.45Q120.24-19.75 118.29-21.7 116.34-23.65 112.89-23.65L112.89-23.65Q110.79-23.65 108.77-22.88 106.74-22.1 104.54-20.6L104.54-20.6 103.24-23Q105.79-24.75 108.24-25.63 110.69-26.5 113.24-26.5L113.24-26.5Q118.04-26.5 120.84-23.75 123.64-21 123.64-16.15L123.64-16.15 123.64-4.1Q123.64-3.4 123.94-3.08 124.24-2.75 124.89-2.7L124.89-2.7 124.89 0Q124.34 0.05 123.94 0.1 123.54 0.15 123.34 0.1L123.34 0.1Q122.09 0.05 121.44-0.7 120.79-1.45 120.74-2.3L120.74-2.3 120.69-4.2Q118.94-1.95 116.14-0.73 113.34 0.5 110.44 0.5L110.44 0.5Q107.94 0.5 105.92-0.58 103.89-1.65 102.77-3.48 101.64-5.3 101.64-7.5ZM119.09-5.5L119.09-5.5Q119.64-6.2 119.94-6.85 120.24-7.5 120.24-8L120.24-8 120.24-11.8Q118.54-12.45 116.72-12.8 114.89-13.15 113.04-13.15L113.04-13.15Q109.39-13.15 107.14-11.7 104.89-10.25 104.89-7.75L104.89-7.75Q104.89-6.3 105.64-5.03 106.39-3.75 107.84-2.93 109.29-2.1 111.24-2.1L111.24-2.1Q113.69-2.1 115.82-3.05 117.94-4 119.09-5.5ZM141.44 0.35L141.44 0.35Q138.79 0.35 136.54-0.75 134.29-1.85 132.67-3.73 131.04-5.6 130.14-8 129.24-10.4 129.24-12.95L129.24-12.95Q129.24-15.7 130.12-18.13 130.99-20.55 132.62-22.45 134.24-24.35 136.44-25.43 138.64-26.5 141.34-26.5L141.34-26.5Q144.69-26.5 147.17-24.8 149.64-23.1 151.34-20.6L151.34-20.6 151.34-26.05 154.39-26.05 154.39 0.1Q154.39 3.7 152.67 6.18 150.94 8.65 148.02 9.9 145.09 11.15 141.64 11.15L141.64 11.15Q137.19 11.15 134.44 9.55 131.69 7.95 129.94 5.25L129.94 5.25 132.04 3.6Q133.59 6.05 136.17 7.25 138.74 8.45 141.64 8.45L141.64 8.45Q144.19 8.45 146.31 7.53 148.44 6.6 149.72 4.75 150.99 2.9 150.99 0.1L150.99 0.1 150.99-5.05Q149.49-2.6 146.89-1.13 144.29 0.35 141.44 0.35ZM142.39-2.5L142.39-2.5Q143.94-2.5 145.37-3.05 146.79-3.6 147.99-4.53 149.19-5.45 149.99-6.6 150.79-7.75 150.99-8.95L150.99-8.95 150.99-17Q150.24-18.9 148.84-20.38 147.44-21.85 145.67-22.68 143.89-23.5 141.99-23.5L141.99-23.5Q139.79-23.5 138.06-22.58 136.34-21.65 135.17-20.13 133.99-18.6 133.34-16.7 132.69-14.8 132.69-12.9L132.69-12.9Q132.69-10.8 133.44-8.93 134.19-7.05 135.52-5.58 136.84-4.1 138.62-3.3 140.39-2.5 142.39-2.5ZM173.14 0.5L173.14 0.5Q170.34 0.5 167.94-0.58 165.54-1.65 163.79-3.53 162.04-5.4 161.06-7.85 160.09-10.3 160.09-13.1L160.09-13.1Q160.09-16.75 161.76-19.8 163.44-22.85 166.39-24.68 169.34-26.5 173.09-26.5L173.09-26.5Q176.94-26.5 179.81-24.65 182.69-22.8 184.34-19.78 185.99-16.75 185.99-13.15L185.99-13.15Q185.99-12.75 185.99-12.38 185.99-12 185.94-11.8L185.94-11.8 163.64-11.8Q163.89-9 165.21-6.83 166.54-4.65 168.66-3.38 170.79-2.1 173.29-2.1L173.29-2.1Q175.84-2.1 178.11-3.4 180.39-4.7 181.29-6.8L181.29-6.8 184.24-6Q183.44-4.15 181.79-2.65 180.14-1.15 177.91-0.33 175.69 0.5 173.14 0.5ZM163.54-14.25L163.54-14.25 182.79-14.25Q182.59-17.1 181.26-19.25 179.94-21.4 177.81-22.63 175.69-23.85 173.14-23.85L173.14-23.85Q170.59-23.85 168.49-22.63 166.39-21.4 165.06-19.23 163.74-17.05 163.54-14.25ZM228.43-35.5L228.43-32.4 215.78-32.4 215.78 0 212.28 0 212.28-32.4 199.63-32.4 199.63-35.5 228.43-35.5ZM225.73-7.5L225.73-7.5Q225.73-9.95 227.13-11.73 228.53-13.5 231.01-14.48 233.48-15.45 236.73-15.45L236.73-15.45Q238.63-15.45 240.68-15.15 242.73-14.85 244.33-14.25L244.33-14.25 244.33-16.45Q244.33-19.75 242.38-21.7 240.43-23.65 236.98-23.65L236.98-23.65Q234.88-23.65 232.86-22.88 230.83-22.1 228.63-20.6L228.63-20.6 227.33-23Q229.88-24.75 232.33-25.63 234.78-26.5 237.33-26.5L237.33-26.5Q242.13-26.5 244.93-23.75 247.73-21 247.73-16.15L247.73-16.15 247.73-4.1Q247.73-3.4 248.03-3.08 248.33-2.75 248.98-2.7L248.98-2.7 248.98 0Q248.43 0.05 248.03 0.1 247.63 0.15 247.43 0.1L247.43 0.1Q246.18 0.05 245.53-0.7 244.88-1.45 244.83-2.3L244.83-2.3 244.78-4.2Q243.03-1.95 240.23-0.73 237.43 0.5 234.53 0.5L234.53 0.5Q232.03 0.5 230.01-0.58 227.98-1.65 226.86-3.48 225.73-5.3 225.73-7.5ZM243.18-5.5L243.18-5.5Q243.73-6.2 244.03-6.85 244.33-7.5 244.33-8L244.33-8 244.33-11.8Q242.63-12.45 240.81-12.8 238.98-13.15 237.13-13.15L237.13-13.15Q233.48-13.15 231.23-11.7 228.98-10.25 228.98-7.75L228.98-7.75Q228.98-6.3 229.73-5.03 230.48-3.75 231.93-2.93 233.38-2.1 235.33-2.1L235.33-2.1Q237.78-2.1 239.91-3.05 242.03-4 243.18-5.5ZM263.63 0.5L263.63 0.5Q260.43 0.5 257.68-0.55 254.93-1.6 252.93-3.75L252.93-3.75 254.33-6.15Q256.53-4.1 258.75-3.18 260.98-2.25 263.48-2.25L263.48-2.25Q266.53-2.25 268.43-3.48 270.33-4.7 270.33-7L270.33-7Q270.33-8.55 269.4-9.38 268.48-10.2 266.75-10.73 265.03-11.25 262.63-11.85L262.63-11.85Q259.93-12.6 258.1-13.43 256.28-14.25 255.35-15.53 254.43-16.8 254.43-18.85L254.43-18.85Q254.43-21.4 255.7-23.08 256.98-24.75 259.2-25.63 261.43-26.5 264.18-26.5L264.18-26.5Q267.18-26.5 269.48-25.55 271.78-24.6 273.23-22.9L273.23-22.9 271.58-20.6Q270.18-22.2 268.25-22.98 266.33-23.75 263.98-23.75L263.98-23.75Q262.38-23.75 260.93-23.33 259.48-22.9 258.55-21.93 257.63-20.95 257.63-19.25L257.63-19.25Q257.63-17.85 258.33-17.07 259.03-16.3 260.43-15.78 261.83-15.25 263.88-14.65L263.88-14.65Q266.83-13.85 269.03-13.03 271.23-12.2 272.43-10.9 273.63-9.6 273.63-7.25L273.63-7.25Q273.63-3.6 270.88-1.55 268.13 0.5 263.63 0.5ZM301.53 0L297.83 0 288.18-13.35 282.63-8.15 282.63 0 279.23 0 279.23-36.5 282.63-36.5 282.63-11.8 297.38-26 301.13-26 290.48-15.35 301.53 0ZM314.27 0.5L314.27 0.5Q311.07 0.5 308.32-0.55 305.57-1.6 303.57-3.75L303.57-3.75 304.97-6.15Q307.17-4.1 309.4-3.18 311.62-2.25 314.12-2.25L314.12-2.25Q317.17-2.25 319.07-3.48 320.97-4.7 320.97-7L320.97-7Q320.97-8.55 320.05-9.38 319.12-10.2 317.4-10.73 315.67-11.25 313.27-11.85L313.27-11.85Q310.57-12.6 308.75-13.43 306.92-14.25 306-15.53 305.07-16.8 305.07-18.85L305.07-18.85Q305.07-21.4 306.35-23.08 307.62-24.75 309.85-25.63 312.07-26.5 314.82-26.5L314.82-26.5Q317.82-26.5 320.12-25.55 322.42-24.6 323.87-22.9L323.87-22.9 322.22-20.6Q320.82-22.2 318.9-22.98 316.97-23.75 314.62-23.75L314.62-23.75Q313.02-23.75 311.57-23.33 310.12-22.9 309.2-21.93 308.27-20.95 308.27-19.25L308.27-19.25Q308.27-17.85 308.97-17.07 309.67-16.3 311.07-15.78 312.47-15.25 314.52-14.65L314.52-14.65Q317.47-13.85 319.67-13.03 321.87-12.2 323.07-10.9 324.27-9.6 324.27-7.25L324.27-7.25Q324.27-3.6 321.52-1.55 318.77 0.5 314.27 0.5Z" opacity="1" transform="matrix(1,0,0,1,0,0)" fill="#fce44d" class="slogan-text-1" data-fill-palette-color="secondary" id="text-1"></path></svg></g></svg></g></svg></g></svg></g><g transform="matrix(1,0,0,1,0,3.060818516270885)"><svg viewBox="0 0 210.01997161270717 210.01997161270717" height="210.01997161270717" width="210.01997161270717"><g><svg></svg></g><g id="icon-0"><svg viewBox="0 0 210.01997161270717 210.01997161270717" height="210.01997161270717" width="210.01997161270717"><g><path d="M0 105.01c0-57.995 47.015-105.01 105.01-105.01 57.995 0 105.01 47.015 105.01 105.01 0 57.995-47.015 105.01-105.01 105.01-57.995 0-105.01-47.015-105.01-105.01zM105.01 196.775c50.68 0 91.765-41.084 91.765-91.765 0-50.68-41.084-91.765-91.765-91.765-50.68 0-91.765 41.084-91.765 91.765 0 50.68 41.084 91.765 91.765 91.765z" data-fill-palette-color="accent" fill="#fce44d" stroke="transparent"></path></g><g transform="matrix(1,0,0,1,60.12866998337367,82.56932789486362)"><svg viewBox="0 0 89.76263164595983 44.881315822979914" height="44.881315822979914" width="89.76263164595983"><g><svg xmlns="http://www.w3.org/2000/svg" version="1.1" data-icon="task" data-container-transform="translate(0 4)" viewBox="0 4 16 8" x="0" y="0" height="44.881315822979914" width="89.76263164595983" class="icon-s-0" data-fill-palette-color="accent" id="s-0"><path d="M0 0v8h8v-4.094l-1 1v2.094h-6v-6h4.188l1-1h-6.188z m7.594 0l-3.094 3.063-1.281-1.281-1.438 1.438 2 2 0.719 0.688 0.719-0.688 3.781-3.813-1.406-1.406z m2.406 2v1h6v-1h-6z m0 3v1h5v-1h-5z" transform="translate(0 4)" fill="#fce44d" data-fill-palette-color="accent"></path></svg></g></svg></g></svg></g></svg></g></svg></g><defs></defs></svg><rect width="395.52" height="126.6705807095604" fill="none" stroke="none" visibility="hidden"></rect></g></svg></g></svg>